# xmcd
#
# Track frame offsets: 
#        150
#        30750
#        67520
#        127013
#        173813
#        183768
#        216394
#        255525
#        288638
#
# Disc length: 4312 seconds
#
# Revision: 3
# Processed by: cddbd v1.5.2PL0 Copyright (c) Steve Scherf et al.
# Submitted via: ExactAudioCopy v0.99pb5
#
DISCID=7710d609
DTITLE=Various Artist - Mr Bongo Latin Beats Boxset CD6 Montuno Sessions
DYEAR=2009
DGENRE=Salsa
TTITLE0=Tema de Maria Cervantes - Charlie Palmieri All-Stars
TTITLE1=Tumba Palo Cucuye - Wayne Gorbea All-Stars
TTITLE2=Descarga (Around Midnight) - Charanson
TTITLE3=6/8 Modal Latin Jazz - Henry and Orlando Fiol
TTITLE4=on the danzon - Charlie Palmieri All-Stars
TTITLE5=Pare Cochero - Charlie Palmieri All-Stars
TTITLE6=Que No Muera El Son - Angelo Vaillant
TTITLE7=Son de Mi Vida Charanga Cale
TTITLE8=Oriente - Henry and Orlando Fiol
EXTD=YEAR: 2009
EXTT0=
EXTT1=
EXTT2=
EXTT3=
EXTT4=
EXTT5=
EXTT6=
EXTT7=
EXTT8=
PLAYORDER=
